<?xml version="1.0" encoding="utf-8"?>
<!-- Generator: Adobe Illustrator 25.4.1, SVG Export Plug-In . SVG Version: 6.00 Build 0)  -->
<svg version="1.1" id="Layer_1" xmlns="http://www.w3.org/2000/svg" xmlns:xlink="http://www.w3.org/1999/xlink" x="0px" y="0px"
	 viewBox="0 0 100 75" style="enable-background:new 0 0 100 75;" xml:space="preserve">
<style type="text/css">
	.st0{fill:#010101;}
</style>
<path class="st0" d="M50.44,0.31c-4.59,0-8.33,3.74-8.33,8.33H8.78c-4.59,0-8.33,3.74-8.33,8.33v50c0,4.6,3.74,8.33,8.33,8.33h83.33
	c4.59,0,8.33-3.74,8.33-8.33v-50c0-4.6-3.74-8.33-8.33-8.33H58.78C58.78,4.05,55.04,0.31,50.44,0.31z M50.44,4.47
	c2.3,0,4.17,1.87,4.17,4.17v8.33h-8.33V8.64h0C46.28,6.34,48.14,4.47,50.44,4.47z M8.78,12.81h33.33v6.25
	c0,1.15,0.93,2.08,2.08,2.08h12.5c1.15,0,2.08-0.93,2.08-2.08v-6.25h33.33c2.3,0,4.17,1.87,4.17,4.17v50c0,2.3-1.87,4.17-4.17,4.17
	H8.78c-2.3,0-4.17-1.87-4.17-4.17v-50C4.61,14.68,6.48,12.81,8.78,12.81z M31.69,21.14c-5.75,0-10.42,4.67-10.42,10.42
	s4.67,10.42,10.42,10.42s10.42-4.67,10.42-10.42S37.44,21.14,31.69,21.14z M31.69,25.31c3.45,0,6.25,2.8,6.25,6.25
	s-2.8,6.25-6.25,6.25s-6.25-2.8-6.25-6.25S28.25,25.31,31.69,25.31z M52.53,37.81c-1.15,0-2.08,0.93-2.08,2.08s0.93,2.08,2.08,2.08
	h33.33c1.15,0,2.08-0.93,2.08-2.08c0-1.15-0.93-2.08-2.08-2.08H52.53z M31.69,44.06c-5.75,0-10.92,2.34-14.25,4.3
	c-2.78,1.64-4.5,4.82-4.5,8.3v1.33c0,2.66,2,4.82,4.46,4.82h28.57c2.46,0,4.46-2.16,4.46-4.82v-1.33c0-3.48-1.73-6.66-4.5-8.3
	C42.61,46.4,37.44,44.06,31.69,44.06z M31.69,48.22c4.81,0,9.25,2.02,12.13,3.72c1.49,0.88,2.45,2.73,2.45,4.71v1.33
	c0,0.43-0.25,0.65-0.3,0.65H17.41c-0.05,0-0.3-0.22-0.3-0.65v-1.33c0-1.98,0.96-3.83,2.45-4.71C22.44,50.25,26.88,48.22,31.69,48.22
	z M60.86,50.31c-1.15,0-2.08,0.93-2.08,2.08s0.93,2.08,2.08,2.08h25c1.15,0,2.08-0.93,2.08-2.08c0-1.15-0.93-2.08-2.08-2.08H60.86z"
	/>
</svg>
