<?xml version="1.0" encoding="utf-8"?>
<!-- Generator: Adobe Illustrator 25.4.1, SVG Export Plug-In . SVG Version: 6.00 Build 0)  -->
<svg version="1.1" id="Layer_1" xmlns="http://www.w3.org/2000/svg" xmlns:xlink="http://www.w3.org/1999/xlink" x="0px" y="0px"
	 viewBox="0 0 51.9 91.6" style="enable-background:new 0 0 51.9 91.6;" xml:space="preserve">
<style type="text/css">
	.st0{fill:#010101;}
</style>
<path class="st0" d="M45.62-0.19H7.12c-3.7,0-6.7,3-6.7,6.7v78.2c0,3.7,3,6.7,6.7,6.7h38.5c3.7,0,6.7-3,6.7-6.7V6.51
	C52.22,2.81,49.22-0.19,45.62-0.19L45.62-0.19z M16.82,3.91h19c0.5,0,0.9,0.7,0.9,1.6c0,0.9-0.4,1.6-0.9,1.6h-19
	c-0.5,0-0.9-0.7-0.9-1.6S16.32,3.91,16.82,3.91L16.82,3.91z M26.32,84.71c-2.3,0-4.3-1.9-4.3-4.2c0-2.3,1.9-4.3,4.3-4.3
	c2.3,0,4.2,1.9,4.2,4.3C30.52,82.81,28.62,84.71,26.32,84.71L26.32,84.71z M47.22,70.21H5.42v-59.1h41.8V70.21z"/>
</svg>
